<svg xmlns="http://www.w3.org/2000/svg"
 xmlns:xlink="http://www.w3.org/1999/xlink"
 width="19px" height="18px"  viewBox="0 0 19 18">
<path fill-rule="evenodd"  fill="#ffffff"
 d="M10.603943,8.216553 C10.603943,8.216553 10.603943,8.19165 10.603943,8.19165 C10.598694,8.200195 10.593018,8.208252 10.5877075,8.216553 C10.5877075,8.216553 10.603943,8.216553 10.603943,8.216553 ZM16.817444,1.0 C16.817444,1.0 3.1819458,1.0 3.1819458,1.0 C2.529419,1.0 1.999939,1.5131836 1.999939,2.1462402 C1.999939,2.1462402 1.999939,15.85376 1.999939,15.85376 C1.999939,16.486084 2.529419,16.999756 3.1819458,16.999756 C3.1819458,16.999756 16.817444,16.999756 16.817444,16.999756 C17.47052,16.999756 18.0,16.486084 18.0,15.85376 C18.0,15.85376 18.0,2.1462402 18.0,2.1462402 C18.0,1.5131836 17.47052,1.0 16.817444,1.0 ZM6.8497314,14.393311 C6.8497314,14.393311 4.4329834,14.393311 4.4329834,14.393311 C4.4329834,14.393311 4.4329834,7.1691895 4.4329834,7.1691895 C4.4329834,7.1691895 6.8497314,7.1691895 6.8497314,7.1691895 C6.8497314,7.1691895 6.8497314,14.393311 6.8497314,14.393311 ZM5.6417236,6.182373 C5.6417236,6.182373 5.6256104,6.182373 5.6256104,6.182373 C4.8147583,6.182373 4.2904053,5.6274414 4.2904053,4.934082 C4.2904053,4.225586 4.8311768,3.6860352 5.6574097,3.6860352 C6.484131,3.6860352 6.992737,4.225586 7.008972,4.934082 C7.008972,5.6274414 6.484131,6.182373 5.6417236,6.182373 ZM15.563904,14.393311 C15.563904,14.393311 13.1474,14.393311 13.1474,14.393311 C13.1474,14.393311 13.1474,10.527832 13.1474,10.527832 C13.1474,9.557129 12.797913,8.894531 11.923279,8.894531 C11.25592,8.894531 10.858276,9.341309 10.6831665,9.772949 C10.619202,9.92749 10.603943,10.142822 10.603943,10.358643 C10.603943,10.358643 10.603943,14.393311 10.603943,14.393311 C10.603943,14.393311 8.187195,14.393311 8.187195,14.393311 C8.187195,14.393311 8.218811,7.8461914 8.187195,7.1691895 C8.187195,7.1691895 10.603943,7.1691895 10.603943,7.1691895 C10.603943,7.1691895 10.603943,8.19165 10.603943,8.19165 C10.92511,7.699707 11.499268,6.9987793 12.782043,6.9987793 C14.371948,6.9987793 15.563904,8.031494 15.563904,10.251221 C15.563904,10.251221 15.563904,14.393311 15.563904,14.393311 Z"/>
</svg>