<svg xmlns="http://www.w3.org/2000/svg"
 xmlns:xlink="http://www.w3.org/1999/xlink"
 width="23px" height="17px"  viewBox="0 0 23 17">
<path fill-rule="evenodd"  fill="#ffffff"
 d="M16.997864,4.2824707 C16.985413,4.276367 16.972656,4.262451 16.960144,4.250244 C16.21228,3.5891113 15.333496,3.2734375 14.322937,3.3112793 C14.322937,3.3112793 14.291931,3.2434082 14.291931,3.2434082 C14.298157,3.2373047 14.304382,3.2373047 14.310486,3.2373047 C15.22699,3.03833 15.76947,2.8344727 15.9313965,2.6123047 C15.987732,2.4331055 15.919556,2.3342285 15.719543,2.3095703 C15.258057,2.3649902 14.834045,2.4575195 14.453735,2.6000977 C14.934143,2.3095703 15.121033,2.1054688 15.015015,2.0 C14.541199,2.012207 14.030212,2.2419434 13.49353,2.6933594 C13.693054,2.3710938 13.768127,2.197754 13.718445,2.1672363 C13.4627075,2.3342285 13.238037,2.5136719 13.044922,2.704834 C12.639526,3.131836 12.315247,3.5273438 12.065918,3.8867188 C12.065918,3.8867188 12.053528,3.9172363 12.053528,3.9172363 C11.411682,4.9003906 10.962769,5.8894043 10.694458,6.897949 C10.694458,6.897949 10.59491,6.972412 10.59491,6.972412 C10.59491,6.972412 10.576355,6.9902344 10.576355,6.9902344 C10.189575,6.532715 9.72821,6.149658 9.173645,5.8393555 C8.519043,5.4379883 7.752014,5.0544434 6.866516,4.683838 C5.9003906,4.213867 4.921509,3.8242188 3.9301147,3.5214844 C3.9241943,4.5666504 4.4663086,5.401123 5.545044,6.007324 C5.545044,6.007324 5.545044,6.025635 5.545044,6.025635 C5.1644897,6.018799 4.796814,6.074951 4.4414062,6.180664 C4.5098267,7.151367 5.239502,7.819092 6.623413,8.189697 C6.623413,8.189697 6.6169434,8.208008 6.6169434,8.208008 C6.074707,8.178223 5.6259155,8.357422 5.2767334,8.728027 C5.7318726,9.569336 6.536072,9.970459 7.7023926,9.939697 C7.4711914,10.05127 7.2906494,10.174072 7.17218,10.311035 C6.960205,10.521484 6.8914185,10.769287 6.960205,11.0529785 C7.2094727,11.479736 7.6585083,11.677002 8.319397,11.6467285 C8.319397,11.6467285 8.319397,11.6467285 8.319397,11.6467285 C8.319397,11.6467285 8.356567,11.689941 8.356567,11.689941 C8.350403,11.696045 8.344116,11.702393 8.337952,11.708252 C7.1970215,12.821533 5.819214,13.322266 4.2041626,13.217529 C4.2041626,13.217529 4.1793823,13.229736 4.1793823,13.229736 C3.19458,13.2229 2.1408691,12.778564 1.0,11.887939 C2.1470947,13.445557 3.668274,14.570801 5.5513916,15.276611 C7.708069,15.950684 9.865601,16.0 12.016174,15.424561 C12.016174,15.424561 12.053528,15.424561 12.053528,15.424561 C14.142456,14.855469 15.912842,13.686768 17.371399,11.918945 C18.044739,10.991455 18.468872,10.107666 18.63739,9.259766 C19.72821,9.296631 20.513794,9.0 21.000122,8.369629 C21.000122,8.369629 20.988098,8.350586 20.988098,8.350586 C20.626038,8.473633 19.915405,8.437744 18.861511,8.233643 C18.861511,8.233643 18.861511,8.121582 18.861511,8.121582 C18.861511,8.116455 18.861511,8.116455 18.867981,8.121582 C20.021484,7.998535 20.700989,7.6467285 20.91925,7.064453 C20.114746,7.3615723 19.322754,7.366699 18.537292,7.0893555 C18.394348,6.062744 17.88324,5.1291504 16.997864,4.2824707 Z"/>
</svg>