<?xml version="1.0" standalone="no"?>
<!DOCTYPE svg PUBLIC "-//W3C//DTD SVG 20010904//EN"
 "http://www.w3.org/TR/2001/REC-SVG-20010904/DTD/svg10.dtd">
<svg version="1.0" xmlns="http://www.w3.org/2000/svg"
 width="88.000000pt" height="88.000000pt" viewBox="0 0 88.000000 88.000000"
 preserveAspectRatio="xMidYMid meet">
<metadata>
Created by potrace 1.11, written by Peter Selinger 2001-2013
</metadata>
<g transform="translate(0.000000,88.000000) scale(0.100000,-0.100000)"
fill="#000000" stroke="none">
<path d="M285 790 c-11 -17 -8 -91 4 -103 11 -11 11 -11 15 58 l1 30 125 1
c69 1 130 -1 137 -3 8 -3 10 -19 8 -44 -3 -29 -1 -39 10 -39 22 0 21 96 -1
104 -27 10 -292 7 -299 -4z"/>
<path d="M11 633 c-6 -7 -11 -45 -11 -87 l0 -75 43 -30 c43 -29 132 -64 195
-75 17 -3 47 -9 65 -13 55 -11 302 -6 302 7 0 1 9 3 20 4 75 10 191 56 233 93
19 18 22 30 22 96 0 62 -3 76 -17 82 -10 4 -203 8 -429 9 -310 1 -414 -2 -423
-11z m837 -67 c2 -27 1 -59 -2 -70 -5 -19 -53 -56 -81 -63 -5 -1 -28 -9 -50
-17 -123 -44 -328 -54 -473 -22 -59 13 -142 41 -142 48 0 4 -6 8 -14 8 -7 0
-24 10 -38 23 -22 20 -25 31 -22 75 1 29 5 56 8 60 3 5 186 8 408 8 l403 -1 3
-49z"/>
<path d="M0 236 c0 -131 2 -155 16 -160 20 -8 828 -8 848 0 23 9 24 314 1 314
-13 0 -15 -23 -15 -145 0 -80 -3 -146 -7 -146 -34 -6 -791 -4 -803 2 -12 6
-15 32 -14 148 1 112 -2 141 -13 141 -10 0 -13 -32 -13 -154z"/>
<path d="M360 293 c0 -15 -3 -14 78 -17 63 -1 93 6 79 20 -3 4 -40 8 -82 8
-55 1 -75 -2 -75 -11z"/>
</g>
</svg>
